:FULLY-SPECIFIED
:FORCE-ALL-JOINTS-BE-3DOF
:DEGREES
3058
root -1.68837 15.9793 -34.4083 1086.28 5.99127 2.42147
lfemur -34.8251 4.36626 -1.94166
ltibia 65.2259 0 0
lfoot -7.29213 1.47744 0
ltoes -36.1092 0 0
rfemur -37.6949 -7.27898 25.8289
rtibia 61.3521 0 0
rfoot -19.3428 -28.9531 0
rtoes -5.91479 0 0
lowerback 13.0048 -0.0546417 -1.71401
upperback -1.01105 -0.215835 1.62669
thorax -8.41437 0.0285489 2.77892
lowerneck 4.57421 -10.259 -12.5759
upperneck -3.94978 -14.0873 10.198
head -0.323324 -7.11822 5.29495
lclavicle -3.54345e-14 1.59874e-15 0
lhumerus 19.615 -46.9733 87.3715
lradius 66.4128 0 0
lwrist -7.13424 0 0
lhand -27.963 391.414 0
lfingers 7.12502 0 0
lthumb -1.35019 -658.606 0
rclavicle -3.54345e-14 1.59874e-15 0
rhumerus 25.0086 49.3781 -51.14
rradius 105.594 0 0
rwrist -47.0472 0 0
rhand -1.73943 -384.6 0
rfingers 7.12502 0 0
rthumb 23.9397 306.616 0
3059
root -1.66774 15.9792 -34.3746 1086.3 6.04408 2.31813
lfemur -34.7498 4.293 -2.07725
ltibia 64.4962 0 0
lfoot -7.74302 1.16638 0
ltoes -36.5868 0 0
rfemur -37.4668 -7.06779 25.6491
rtibia 61.406 0 0
rfoot -19.3466 -28.7866 0
rtoes -6.38521 0 0
lowerback 12.9851 -0.0138359 -1.64453
upperback -1.01706 -0.151126 1.6079
thorax -8.41044 0.0553263 2.70422
lowerneck 4.48559 -10.091 -12.4592
upperneck -3.84235 -13.8545 10.0724
head -0.315644 -6.99957 5.2507
lclavicle -3.56666e-14 5.19572e-16 0
lhumerus 18.5237 -47.0464 87.7877
lradius 66.7729 0 0
lwrist -6.86208 0 0
lhand -27.9313 391.588 0
lfingers 7.12502 0 0
lthumb -1.31966 -658.431 0
rclavicle -3.56666e-14 5.19572e-16 0
rhumerus 23.2107 49.7897 -52.2876
rradius 106.292 0 0
rwrist -46.9212 0 0
rhand -1.72886 -384.488 0
rfingers 7.12502 0 0
rthumb 23.95 306.726 0
3060
root -1.64628 15.9794 -34.3397 1086.32 6.07953 2.20826
lfemur -34.6725 4.21735 -2.2193
ltibia 63.7449 0 0
lfoot -8.19756 0.861754 0
ltoes -37.0627 0 0
rfemur -37.2298 -6.85306 25.4672
rtibia 61.4513 0 0
rfoot -19.3491 -28.6166 0
rtoes -6.86099 0 0
lowerback 12.9625 0.0284117 -1.57363
upperback -1.02473 -0.0842647 1.5892
thorax -8.40658 0.0830714 2.62837
lowerneck 4.39149 -9.91848 -12.3387
upperneck -3.72997 -13.6153 9.94351
head -0.306353 -6.87765 5.20467
lclavicle -3.58665e-14 -5.44059e-16 0
lhumerus 17.4032 -47.0962 88.2082
lradius 67.136 0 0
lwrist -6.58741 0 0
lhand -27.9025 391.762 0
lfingers 7.12502 0 0
lthumb -1.29177 -658.257 0
rclavicle -3.58665e-14 -5.44059e-16 0
rhumerus 21.3804 50.1745 -53.4546
rradius 106.968 0 0
rwrist -46.7735 0 0
rhand -1.74123 -384.383 0
rfingers 7.12502 0 0
rthumb 23.9382 306.827 0
3061
root -1.62376 15.98 -34.304 1086.35 6.10261 2.09307
lfemur -34.5905 4.13899 -2.36708
ltibia 62.9743 0 0
lfoot -8.6554 0.563827 0
ltoes -37.5363 0 0
rfemur -36.9838 -6.63549 25.2826
rtibia 61.4861 0 0
rfoot -19.3494 -28.4433 0
rtoes -7.34128 0 0
lowerback 12.9363 0.0718243 -1.50154
upperback -1.03412 -0.0156498 1.57074
thorax -8.40258 0.111613 2.55176
lowerneck 4.29189 -9.74207 -12.215
upperneck -3.61253 -13.3705 9.81161
head -0.295274 -6.75289 5.15699
lclavicle -3.60336e-14 -1.58589e-15 0
lhumerus 16.253 -47.1244 88.6331
lradius 67.5005 0 0
lwrist -6.31122 0 0
lhand -27.8768 391.936 0
lfingers 7.12502 0 0
lthumb -1.26694 -658.083 0
rclavicle -3.60336e-14 -1.58589e-15 0
rhumerus 19.5188 50.5323 -54.639
rradius 107.618 0 0
rwrist -46.6008 0 0
rhand -1.77768 -384.287 0
rfingers 7.12502 0 0
rthumb 23.9032 306.918 0
3062
root -1.59994 15.9811 -34.2676 1086.38 6.11834 1.97378
lfemur -34.5015 4.0576 -2.51985
ltibia 62.1865 0 0
lfoot -9.11618 0.272865 0
ltoes -38.0073 0 0
rfemur -36.7287 -6.41575 25.0949
rtibia 61.5085 0 0
rfoot -19.3466 -28.2666 0
rtoes -7.82521 0 0
lowerback 12.9061 0.116126 -1.4285
upperback -1.04533 0.0543173 1.55267
thorax -8.39822 0.140779 2.47479
lowerneck 4.18677 -9.56244 -12.0883
upperneck -3.48993 -13.121 9.67711
head -0.282232 -6.62575 5.10781
lclavicle -3.61675e-14 -2.59964e-15 0
lhumerus 15.073 -47.1324 89.0627
lradius 67.8642 0 0
lwrist -6.03451 0 0
lhand -27.8547 392.11 0
lfingers 7.12502 0 0
lthumb -1.24562 -657.909 0
rclavicle -3.61675e-14 -2.59964e-15 0
rhumerus 17.6274 50.8627 -55.8388
rradius 108.24 0 0
rwrist -46.4001 0 0
rhand -1.83935 -384.2 0
rfingers 7.12502 0 0
rthumb 23.8439 307 0
3063
root -1.57459 15.9829 -34.2308 1086.41 6.13169 1.85159
lfemur -34.4031 3.97287 -2.67688
ltibia 61.3835 0 0
lfoot -9.57952 -0.010867 0
ltoes -38.4751 0 0
rfemur -36.4644 -6.19454 24.9033
rtibia 61.5167 0 0
rfoot -19.3399 -28.0865 0
rtoes -8.3119 0 0
lowerback 12.8714 0.161039 -1.35475
upperback -1.0584 0.125236 1.53512
thorax -8.3933 0.170397 2.39785
lowerneck 4.07611 -9.38024 -11.9593
upperneck -3.36205 -12.8678 9.54039
head -0.267051 -6.49667 5.05725
lclavicle -3.62676e-14 -3.57907e-15 0
lhumerus 13.8626 -47.1218 89.497
lradius 68.2255 0 0
lwrist -5.75827 0 0
lhand -27.8367 392.283 0
lfingers 7.12502 0 0
lthumb -1.22822 -657.736 0
rclavicle -3.62676e-14 -3.57907e-15 0
rhumerus 15.7075 51.1653 -57.0519
rradius 108.829 0 0
rwrist -46.1683 0 0
rhand -1.92736 -384.123 0
rfingers 7.12502 0 0
rthumb 23.7591 307.071 0
